<svg version="1.2" xmlns="http://www.w3.org/2000/svg" viewBox="0 0 1640 305" width="1640" height="305">
	<title>New Project</title>
	<style>
		.s0 { fill: #000000 } 
	</style>
	<path id="[adult swim]" fill-rule="evenodd" class="s0" d="m77.4 2.8v33.7h-35.4v234.8h35.4v33.6h-77.1v-302.1zm146.4 108.3v99.6c0 14.1 1.3 21.9 5.7 32.3h-44.4c-2-3.4-3.7-9.8-5.7-18.8h-0.7c-10.1 16.8-20.5 23.5-45.8 23.5-36.6 0-44-33.3-44-52.1 0-32.3 12.1-47.1 48.4-56.9l21.2-5.7c15.1-4 20.9-9.1 20.9-21.9 0-15.1-7.1-22.2-21.6-22.2-13.1 0-21.5 7.8-21.5 23.9v4.7h-41.7v-3.3c0-37.7 21.8-56.9 63.6-56.9 45.7 0 65.6 14.8 65.6 53.8zm-73 105c14.1 0 28.6-9.4 28.6-27.3v-37c-5.1 3.7-7.4 5.4-15.9 8.4l-10.1 3.7c-14.4 5.4-20.1 12.5-20.1 27 0 16.1 6.4 25.2 17.5 25.2zm243.2-213.3v240.2h-44.4v-19.2h-0.7c-9.8 16.2-21.9 23.9-41 23.9-42.8 0-55.6-36.3-55.6-95.2 0-57.8 12.5-95.2 55.6-95.2 17.4 0 29.2 7.1 39 21.5h0.6v-76zm-70.9 209.3c18.5 0 24.5-15.2 24.5-59.6 0-43.4-5.7-59.5-24.5-59.5-18.5 0-24.3 16.1-24.3 59.5 0 44.4 6.4 59.6 24.3 59.6zm148.3-150.1v125.5c0 17.2 5.7 24.6 19.9 24.6 16.4 0 24.5-10.5 24.5-28.6v-121.5h46.4v181h-44.4v-21.2h-0.6c-9.5 16.8-24.9 25.9-46.1 25.9-31.3 0-46.1-17.8-46.1-51.8v-133.9zm169.9-59.2v240.2h-46.5v-240.2zm89.2 7.4v51.8h26.9v31.6h-26.9v99.3c0 13.1 3 18.5 16.8 18.5 5.4 0 7.1-0.4 10.1-0.7v32.3c-19.5 2-23.6 2-30.3 2-34.6 0-43-9.4-43-45.7v-105.7h-23.6v-31.6h23.6v-51.8zm245.9 98.9v7.1h-41.8c0-19.9-6-27.3-20.5-27.3-12.4 0-21.8 7.1-21.8 19.5 0 10.5 6.7 16.9 19.1 20.9l30.7 10.4c25.9 8.8 38.3 22.9 38.3 51.2 0 36-25.9 56.8-67.3 56.8-46.4 0-66.6-17.5-66.6-57.2v-6.7h41.7v4.7c0 19.2 9.8 27.6 24.2 27.6 15.5 0 23.6-8.1 23.6-21.5 0-9.8-5.4-16.5-16.8-20.6l-32.7-11.7c-27.5-10.1-38.6-26.3-38.6-50.5 0-33 22.8-54.5 66.6-54.5 44 0 61.9 20.2 61.9 51.8zm60.5-47.1l21.2 128.5h0.7l22.5-128.5h50.5l23.9 128.5h0.6l21.9-128.5h44.4l-39 181h-52.8l-23.9-128.5h-0.7l-22.2 128.5h-54.2l-39.3-181zm251.6-61.9v39.7h-46.4v-39.7zm0 61.9v181h-46.4v-181zm165.1 24.2h0.7c6.7-18.5 22.9-28.9 45.7-28.9 30.3 0 45.1 18.9 45.1 52.8v132.9h-46.4v-127.5c0-13.1-4.4-22.5-18.2-22.5-15.8 0-24.2 11.4-24.2 29.9v120.1h-46.4v-127.2c0-14.4-5-22.8-18.5-22.8-16.2 0-23.9 12.4-23.9 29.9v120.1h-46.4v-181h44.4v18.5h0.7c10.1-14.4 23.9-23.2 45.7-23.2 22.6 0 37 11.1 41.7 28.9zm186-83.4v302.1h-77v-33.6h35.3v-234.8h-35.3v-33.7z"/>
</svg>