<svg version="1.2" xmlns="http://www.w3.org/2000/svg" viewBox="0 0 1567 277" width="1567" height="277">
	<title>logo (70)-svg</title>
	<style>
		.s0 { fill: #000000 } 
	</style>
	<path id="Layer" fill-rule="evenodd" class="s0" d="m0 220.6l111.2-220.6h42.8l-111.6 220.6zm218.4-38.3h107.7v38.4h-150.6v-220.7h42.8zm133.7-182.3h42.5v38.2h-42.5zm0.3 220.7v-161.9h42.2v161.9zm174.6-161.9h45.4l-59.2 161.9h-41.7l-58-161.9h46.7l33 103.2zm207.1 93.1h-115.7c1.9 23.4 16.4 37.5 38.8 37.5 19.2 0 31.5-10 36.9-25.3l36.9 11.9c-10.1 30.6-38.8 48.1-74.7 48.1-48.8 0-80.3-32.2-80.3-83.8 0-50.9 29.3-85 81.6-85 52.6 0 80.9 35.9 76.5 96.6zm-115.1-30.7h73.5c-2.5-20.6-14.5-32.2-35.7-32.2-21.7 0.1-34.9 12.6-37.8 32.2zm270.2 99.4l-43.2-86.6h-36.9v86.6h-42.9v-220.6h83.9c54.8 0 81.9 25.6 81.9 66.2 0 30-15.1 49.7-42.2 60.3l48.8 94.1zm-80-182.2v57.5h42.2c25.5 0 36.9-11.3 36.9-29.7 0-18.8-10.7-27.8-36.6-27.8zm260.2 182.2c-1.9-2.8-3.8-8.1-5-15-11.4 12.5-28.7 18.5-48 18.5-43.5 0-72.8-30.4-72.8-83.8 0-55.3 31.5-85.1 73.8-85.1 18.3 0 33.1 5.7 44.1 17.9v-14.4h41.3v114.7c0 15.9 1.9 33.4 5.1 47.2 0 0-38.5 0-38.5 0zm-7.9-80.6c0-32.6-15.4-50.1-37.8-50.1-25.5 0-39 21-39 50.4 0 31.2 14.8 49.1 39.3 49.1 23.7-0.1 37.5-18.2 37.5-49.4zm312.3-6.3v86.9h-42.2v-86.6c0-15.9 0-42.2-24.6-42.2-18.9 0-29.6 14.7-29.6 42.6v86.2h-42.2v-86.6c0-16.2 0-42.2-24.9-42.2-18.3 0-29.4 14.7-29.4 41.9v86.9h-42.2v-161.9h42.2v13.1c12.3-11.6 24.9-16.6 40.7-16.6 21.4 0 37.2 8.4 46.3 22.5 11.7-13.4 27.5-22.2 51.1-22.2 54.8 0 54.8 46.3 54.8 78.2zm193.2 5c0 53.8-29.9 85.4-71.2 85.4-17.9 0-33.7-6-44.4-15.9v68.8h-42.2v-218.3h42.2v16.5c10.7-12.5 26.1-20 45-20 43.5 0.1 70.6 33.8 70.6 83.5zm-40.9 0.9c0-27.4-16.9-49.7-37.8-49.7-20.9 0-37.8 22.3-37.8 49.7 0 27.5 16.9 49.7 37.8 49.7 20.9 0 37.8-22.2 37.8-49.7z"/>
</svg>